<svg height="30" width="150" xmlns="http://www.w3.org/2000/svg"><path d="M8.391 6.084L5.887.644A15.215 15.215 0 0 1 10.267 0c8.752 0 15.847 7.391 15.847 16.51 0 5.575-2.656 10.501-6.718 13.49l-2.505-5.44a10.765 10.765 0 0 0 3.556-8.05c0-5.86-4.556-10.608-10.178-10.608-.642 0-1.268.065-1.88.182zm3.345 20.074a9.705 9.705 0 0 1-1.554.123C4.558 26.281 0 21.533 0 15.674c0-3.1 1.276-5.888 3.31-7.825zm38.61-16.906c2.466 0 4.284 1.782 4.284 4.14s-1.8 4.158-4.284 4.158H47.43v3.942H45V9.252zm-.342 6.174c1.116 0 2.214-.594 2.214-2.034s-1.098-2.016-2.214-2.016H47.43v4.05zm16.98 6.066l-1.098-2.574h-5.869l-1.098 2.574h-2.502l5.436-12.24h2.287l5.436 12.24zm-6.085-4.626h4.105l-2.052-4.77zm22.652-3.69c0 1.62-.9 2.952-2.304 3.582l2.178 4.734H80.76l-1.926-4.338h-2.736v4.338h-2.43V9.252h5.688c2.412 0 4.194 1.692 4.194 3.924zm-7.452-1.8v3.672h2.898c1.08 0 2.16-.54 2.16-1.836 0-1.314-1.08-1.836-2.16-1.836zm21.587-2.124v2.196h-3.888v10.044H91.35V11.448h-3.906V9.252zm10.194 1.836h-1.818v8.55h1.818v1.854h-6.066v-1.854h1.818v-8.55h-1.818V9.252h6.066zm10.375 10.656c-3.438 0-6.48-2.502-6.48-6.372S114.817 9 118.255 9c2.358 0 4.284 1.044 5.436 2.736l-2.25 1.008c-.63-.846-1.692-1.512-3.186-1.512-2.304 0-4.014 1.8-4.014 4.14s1.71 4.14 4.014 4.14c1.494 0 2.556-.666 3.186-1.512l2.25 1.008c-1.152 1.692-3.078 2.736-5.436 2.736zm12.353-2.448h5.959v2.196h-8.389V9.252h2.43zm13.038 0H150v2.196h-8.784V9.252h8.676v2.196h-6.246v2.682h5.31v2.178h-5.31z" fill="#19212b"/></svg>